<svg width="200" height="200" viewBox="0 0 200 200" fill="none" xmlns="http://www.w3.org/2000/svg">
<rect width="200" height="200" fill="white"/>
<rect x="9.84541" y="141.129" width="190.4" height="55.6" rx="5.6" transform="rotate(-40.9062 9.84541 141.129)" fill="white" stroke="#284E27" stroke-width="4.8"/>
<path d="M49.95 148.956C50.0177 148.898 50.0977 148.853 50.1899 148.823C50.2771 148.787 50.3787 148.773 50.4946 148.781L52.6629 148.992C52.7286 150.071 52.5304 151.102 52.0683 152.085C51.607 153.058 50.8657 153.987 49.8442 154.872C48.9075 155.683 47.9297 156.254 46.911 156.583C45.8931 156.902 44.8825 157.007 43.8793 156.898C42.8768 156.779 41.9049 156.455 40.9634 155.927C40.017 155.394 39.1527 154.676 38.3704 153.773C37.5735 152.853 37.0005 151.872 36.6516 150.831C36.2977 149.784 36.161 148.737 36.2412 147.689C36.3272 146.637 36.6307 145.613 37.1518 144.618C37.6729 143.623 38.4104 142.713 39.3641 141.886C39.8268 141.486 40.298 141.151 40.7776 140.884C41.258 140.606 41.7396 140.386 42.2222 140.225C42.7 140.058 43.1764 139.947 43.6515 139.891C44.1217 139.829 44.5776 139.819 45.0192 139.862L45.1764 141.993C45.1827 142.126 45.1729 142.263 45.147 142.404C45.1161 142.539 45.0245 142.673 44.8721 142.805C44.7705 142.893 44.655 142.953 44.5256 142.986C44.3962 143.019 44.2538 143.049 44.0985 143.075C43.9382 143.095 43.7643 143.122 43.5765 143.157C43.3896 143.18 43.1846 143.234 42.9615 143.319C42.7392 143.393 42.4956 143.505 42.2307 143.656C41.9715 143.801 41.6924 144.004 41.3933 144.263C40.8741 144.713 40.4808 145.216 40.2133 145.774C39.9408 146.326 39.7986 146.909 39.7864 147.522C39.7751 148.125 39.8922 148.745 40.1377 149.381C40.3889 150.013 40.7761 150.631 41.2992 151.235C41.8468 151.867 42.418 152.355 43.0126 152.7C43.6129 153.039 44.2065 153.251 44.7933 153.335C45.3809 153.409 45.9479 153.362 46.4945 153.195C47.0411 153.028 47.5402 152.748 47.9916 152.357C48.2512 152.132 48.4784 151.916 48.6733 151.707C48.8633 151.493 49.0217 151.277 49.1485 151.059C49.2809 150.835 49.3874 150.605 49.468 150.367C49.5492 150.119 49.611 149.848 49.6532 149.554C49.672 149.439 49.7062 149.331 49.7559 149.228C49.8007 149.12 49.8654 149.03 49.95 148.956ZM62.5375 132.834C63.31 133.726 63.8736 134.69 64.2282 135.726C64.5884 136.757 64.7361 137.8 64.6712 138.854C64.6015 139.903 64.3109 140.93 63.7996 141.936C63.2939 142.937 62.5613 143.854 61.602 144.685C60.6427 145.516 59.6286 146.113 58.5599 146.476C57.4911 146.839 56.4302 146.982 55.3769 146.907C54.3244 146.821 53.3105 146.529 52.3352 146.03C51.3655 145.527 50.4944 144.829 49.7219 143.938C48.9493 143.046 48.383 142.084 48.0228 141.053C47.6682 140.017 47.5258 138.974 47.5955 137.926C47.6709 136.873 47.9643 135.843 48.4756 134.837C48.987 133.831 49.7223 132.912 50.6816 132.081C51.641 131.25 52.6546 130.658 53.7226 130.305C54.7914 129.943 55.8495 129.801 56.8971 129.882C57.9448 129.962 58.9534 130.254 59.9231 130.757C60.8984 131.256 61.7699 131.948 62.5375 132.834ZM59.6087 135.372C59.0807 134.762 58.5274 134.283 57.9489 133.935C57.3655 133.581 56.7776 133.364 56.1851 133.284C55.5983 133.2 55.0123 133.253 54.4269 133.444C53.8416 133.635 53.2752 133.968 52.7278 134.442C52.1748 134.922 51.7593 135.44 51.4812 135.997C51.2088 136.549 51.0697 137.124 51.064 137.722C51.0639 138.314 51.1975 138.925 51.4649 139.553C51.7274 140.175 52.1226 140.791 52.6507 141.4C53.1836 142.015 53.7418 142.5 54.3252 142.854C54.9036 143.202 55.4863 143.419 56.0731 143.503C56.6656 143.582 57.2544 143.527 57.8398 143.336C58.4259 143.134 58.9954 142.794 59.5485 142.315C60.0959 141.84 60.5082 141.33 60.7855 140.783C61.0579 140.231 61.1942 139.659 61.1943 139.066C61.2 138.468 61.0716 137.858 60.8092 137.236C60.5418 136.608 60.1416 135.987 59.6087 135.372ZM70.831 126.582C71.1296 126.699 71.43 126.829 71.732 126.972C72.0397 127.11 72.3467 127.259 72.6528 127.419C72.5336 127.088 72.4274 126.76 72.3342 126.435C72.236 126.106 72.1481 125.782 72.0702 125.464L69.8382 116.491C69.8018 116.335 69.7873 116.204 69.7948 116.099C69.8031 115.983 69.8317 115.879 69.8806 115.787C69.9295 115.695 69.9967 115.608 70.0821 115.524C70.1732 115.435 70.2808 115.337 70.4049 115.229L72.5888 113.337L83.2745 125.67L80.752 127.856L74.6061 120.762C74.3078 120.418 74.0021 120.031 73.6888 119.601L75.9146 128.772C75.9841 129.057 75.9754 129.327 75.8885 129.58C75.8072 129.828 75.6565 130.048 75.4364 130.238L75.047 130.576C74.827 130.766 74.5854 130.887 74.3225 130.937C74.0652 130.982 73.8002 130.95 73.5275 130.84L64.7426 127.337C64.9363 127.515 65.1244 127.698 65.3068 127.886C65.4843 128.068 65.644 128.241 65.7858 128.404L71.9317 135.498L69.4092 137.683L58.7235 125.35L60.9074 123.458C61.0316 123.35 61.1413 123.26 61.2364 123.188C61.3373 123.11 61.4366 123.054 61.5344 123.019C61.6322 122.983 61.7362 122.972 61.8464 122.985C61.9574 122.988 62.0875 123.018 62.2369 123.077L70.831 126.582ZM88.6029 121.054L85.7248 123.547L75.0392 111.214L77.9172 108.72L88.6029 121.054ZM81.8719 105.294C81.996 105.186 82.1053 105.102 82.1998 105.04C82.2942 104.978 82.3899 104.934 82.487 104.909C82.5791 104.879 82.6807 104.865 82.7917 104.868C82.9026 104.87 83.0392 104.885 83.2013 104.913L95.4762 107.244C95.2483 107.027 95.0333 106.813 94.8313 106.603C94.6245 106.387 94.4355 106.18 94.2644 105.982L88.6098 99.4561L91.1323 97.2706L101.818 109.604L100.328 110.895C100.108 111.085 99.8926 111.213 99.6815 111.277C99.4705 111.341 99.2162 111.344 98.9187 111.286L86.7374 108.977C86.9402 109.177 87.1376 109.376 87.3298 109.575C87.5171 109.769 87.689 109.956 87.8455 110.136L93.5733 116.747L91.0508 118.933L80.3652 106.599L81.8719 105.294ZM108.022 100.613C108.417 100.271 108.737 99.9336 108.983 99.6019C109.229 99.2702 109.439 98.9305 109.612 98.583L107.991 96.7123L106.772 97.7683C106.592 97.9248 106.409 97.9991 106.224 97.9911C106.04 97.9832 105.884 97.9059 105.757 97.7592L104.393 96.1847L108.777 92.3857L113.288 97.5915C113.172 98.0967 113.016 98.5831 112.818 99.0506C112.621 99.5076 112.375 99.9584 112.078 100.403C111.787 100.843 111.444 101.279 111.048 101.711C110.657 102.138 110.211 102.569 109.708 103.004C108.806 103.787 107.833 104.352 106.792 104.701C105.746 105.045 104.699 105.181 103.65 105.112C102.603 105.031 101.586 104.747 100.599 104.258C99.6132 103.759 98.7291 103.058 97.9468 102.155C97.1499 101.235 96.5713 100.259 96.2111 99.2277C95.8459 98.1905 95.7035 97.1482 95.7838 96.1006C95.8697 95.0481 96.1789 94.0195 96.7113 93.0148C97.2494 92.0053 98.015 91.0702 99.0082 90.2097C99.5217 89.7648 100.041 89.3891 100.566 89.0826C101.09 88.7761 101.605 88.5324 102.111 88.3515C102.622 88.1658 103.123 88.0376 103.615 87.9669C104.107 87.8963 104.58 87.8719 105.034 87.8938L105.297 89.8737C105.32 90.0607 105.305 90.2369 105.251 90.4024C105.202 90.5631 105.113 90.6996 104.983 90.812C104.814 90.9587 104.59 91.0539 104.312 91.0975C103.969 91.1576 103.654 91.2277 103.368 91.3078C103.082 91.3773 102.808 91.4715 102.546 91.5904C102.283 91.7092 102.024 91.8547 101.768 92.027C101.512 92.1992 101.241 92.41 100.953 92.6594C100.417 93.1239 100.017 93.6378 99.7547 94.2013C99.4871 94.7591 99.3501 95.3422 99.3437 95.9504C99.3428 96.5538 99.4708 97.169 99.7276 97.7961C99.9796 98.4176 100.362 99.0246 100.876 99.6171C101.443 100.272 102.037 100.775 102.657 101.126C103.278 101.478 103.898 101.691 104.517 101.767C105.142 101.839 105.752 101.779 106.348 101.589C106.945 101.388 107.503 101.063 108.022 100.613ZM118.003 78.3756C118.036 78.5844 118.034 78.7642 117.996 78.9151C117.965 79.061 117.876 79.1975 117.729 79.3247C117.599 79.4371 117.424 79.5198 117.203 79.5729C116.983 79.6153 116.733 79.6689 116.453 79.7336C116.179 79.7933 115.886 79.8888 115.575 80.0201C115.259 80.1457 114.946 80.3429 114.635 80.6118C114.099 81.0763 113.799 81.5392 113.734 82.0003C113.67 82.451 113.807 82.871 114.144 83.2603C114.359 83.5086 114.617 83.6462 114.917 83.6729C115.216 83.6997 115.545 83.6623 115.901 83.5608C116.263 83.4544 116.652 83.3102 117.068 83.1282C117.484 82.9356 117.918 82.7523 118.369 82.5782C118.816 82.3985 119.274 82.2486 119.743 82.1287C120.218 82.0039 120.692 81.9584 121.166 81.9924C121.646 82.0214 122.124 82.1509 122.6 82.3808C123.07 82.605 123.528 82.9739 123.973 83.4874C124.467 84.0574 124.83 84.6762 125.063 85.344C125.296 86.0117 125.385 86.6956 125.329 87.3956C125.275 88.0851 125.064 88.7767 124.696 89.4703C124.33 90.1533 123.797 90.798 123.097 91.4043C122.713 91.7368 122.287 92.0371 121.818 92.3052C121.354 92.5685 120.875 92.7909 120.381 92.9725C119.881 93.1485 119.382 93.2795 118.884 93.3656C118.385 93.4516 117.909 93.4785 117.457 93.4461L117.144 91.3752C117.118 91.2199 117.135 91.0623 117.194 90.9024C117.253 90.7425 117.348 90.6064 117.477 90.4939C117.647 90.3472 117.862 90.2542 118.125 90.2147C118.392 90.1704 118.69 90.1202 119.017 90.0642C119.349 90.0033 119.703 89.9042 120.078 89.767C120.453 89.6297 120.832 89.3949 121.216 89.0624C121.735 88.6126 122.041 88.1501 122.133 87.675C122.221 87.1943 122.049 86.7056 121.619 86.209C121.37 85.9212 121.088 85.7555 120.773 85.7118C120.459 85.6681 120.12 85.6995 119.758 85.8059C119.401 85.9074 119.02 86.0548 118.615 86.2481C118.209 86.4414 117.788 86.6336 117.351 86.8246C116.909 87.01 116.456 87.1655 115.992 87.291C115.522 87.411 115.046 87.4536 114.561 87.4189C114.077 87.3737 113.588 87.2249 113.092 86.9724C112.592 86.7143 112.093 86.2974 111.594 85.7218C111.193 85.2591 110.895 84.7269 110.7 84.1254C110.505 83.5239 110.439 82.8946 110.502 82.2374C110.564 81.5803 110.77 80.9228 111.119 80.2649C111.463 79.6014 111.974 78.9763 112.651 78.3895C113.029 78.062 113.423 77.7752 113.832 77.5292C114.242 77.2728 114.659 77.0644 115.083 76.9042C115.503 76.7384 115.922 76.6175 116.34 76.5416C116.759 76.4551 117.167 76.4181 117.563 76.4306L118.003 78.3756ZM135.803 69.3551C136.576 70.2468 137.139 71.2108 137.494 72.2472C137.854 73.2787 138.002 74.3214 137.937 75.3754C137.867 76.4238 137.577 77.451 137.065 78.4572C136.56 79.4585 135.827 80.3747 134.868 81.2059C133.908 82.0371 132.894 82.6341 131.826 82.997C130.757 83.3598 129.696 83.5036 128.643 83.4282C127.59 83.3423 126.576 83.05 125.601 82.5515C124.631 82.048 123.76 81.3505 122.988 80.4589C122.215 79.5672 121.649 78.6057 121.289 77.5742C120.934 76.5378 120.792 75.4954 120.861 74.4471C120.937 73.3938 121.23 72.3641 121.741 71.3579C122.253 70.3518 122.988 69.4331 123.947 68.6019C124.907 67.7707 125.92 67.1789 126.988 66.8266C128.057 66.4638 129.115 66.3225 130.163 66.4028C131.211 66.483 132.219 66.7749 133.189 67.2783C134.164 67.7769 135.036 68.4692 135.803 69.3551ZM132.874 71.8927C132.346 71.2833 131.793 70.8043 131.215 70.4559C130.631 70.1019 130.043 69.8851 129.451 69.8056C128.864 69.7213 128.278 69.7746 127.693 69.9656C127.107 70.1567 126.541 70.4893 125.994 70.9636C125.441 71.4427 125.025 71.9608 124.747 72.5179C124.475 73.0701 124.335 73.645 124.33 74.2427C124.33 74.8356 124.463 75.4459 124.731 76.0738C124.993 76.696 125.388 77.3118 125.916 77.9213C126.449 78.5364 127.008 79.021 127.591 79.375C128.169 79.7234 128.752 79.9398 129.339 80.0242C129.931 80.1036 130.52 80.0478 131.106 79.8568C131.692 79.6553 132.261 79.3149 132.814 78.8358C133.362 78.3615 133.774 77.8511 134.051 77.3046C134.324 76.7524 134.46 76.1799 134.46 75.5871C134.466 74.9894 134.337 74.3794 134.075 73.7572C133.808 73.1293 133.407 72.5078 132.874 71.8927ZM149.501 57.4874C150.273 58.379 150.837 59.343 151.191 60.3794C151.552 61.4109 151.699 62.4536 151.635 63.5077C151.565 64.556 151.274 65.5833 150.763 66.5894C150.257 67.5907 149.525 68.507 148.565 69.3382C147.606 70.1693 146.592 70.7664 145.523 71.1292C144.454 71.4921 143.393 71.6358 142.34 71.5604C141.288 71.4745 140.274 71.1823 139.298 70.6837C138.329 70.1803 137.458 69.4827 136.685 68.5911C135.913 67.6995 135.346 66.7379 134.986 65.7064C134.631 64.67 134.489 63.6277 134.559 62.5793C134.634 61.526 134.928 60.4963 135.439 59.4902C135.95 58.484 136.686 57.5653 137.645 56.7341C138.604 55.9029 139.618 55.3112 140.686 54.9589C141.755 54.596 142.813 54.4547 143.86 54.535C144.908 54.6153 145.917 54.9071 146.886 55.4106C147.862 55.9091 148.733 56.6014 149.501 57.4874ZM146.572 60.025C146.044 59.4155 145.491 58.9366 144.912 58.5881C144.329 58.2341 143.741 58.0173 143.148 57.9379C142.562 57.8535 141.976 57.9069 141.39 58.0979C140.805 58.2889 140.239 58.6215 139.691 59.0958C139.138 59.575 138.723 60.0931 138.444 60.6501C138.172 61.2023 138.033 61.7772 138.027 62.375C138.027 62.9678 138.161 63.5782 138.428 64.206C138.691 64.8282 139.086 65.4441 139.614 66.0535C140.147 66.6686 140.705 67.1532 141.288 67.5073C141.867 67.8557 142.45 68.0721 143.036 68.1564C143.629 68.2359 144.218 68.1801 144.803 67.9891C145.389 67.7875 145.959 67.4472 146.512 66.968C147.059 66.4938 147.472 65.9834 147.749 65.4368C148.021 64.8847 148.157 64.3122 148.158 63.7193C148.163 63.1216 148.035 62.5116 147.772 61.8894C147.505 61.2615 147.105 60.6401 146.572 60.025ZM147.194 48.6981C147.318 48.5906 147.427 48.5058 147.521 48.4437C147.616 48.3817 147.712 48.3382 147.809 48.3134C147.901 48.283 148.002 48.269 148.113 48.2717C148.224 48.2743 148.361 48.2894 148.523 48.3169L160.798 50.6484C160.57 50.431 160.355 50.2171 160.153 50.0068C159.946 49.7908 159.757 49.5841 159.586 49.3866L153.932 42.8603L156.454 40.6747L167.14 53.0079L165.65 54.2987C165.43 54.4893 165.214 54.6168 165.003 54.6811C164.792 54.7454 164.538 54.7484 164.24 54.69L152.059 52.3811C152.262 52.5809 152.459 52.7803 152.651 52.9793C152.839 53.1727 153.011 53.3597 153.167 53.5402L158.895 60.1512L156.372 62.3367L145.687 50.0036L147.194 48.6981Z" fill="#294F28"/>
</svg>
